<?xml version="1.0" encoding="UTF-8"?>
<svg xmlns="http://www.w3.org/2000/svg" xmlns:xlink="http://www.w3.org/1999/xlink" width="48pt" height="48pt" viewBox="0 0 48 48" version="1.1">
<g id="surface7057">
<path style=" stroke:none;fill-rule:nonzero;fill:rgb(100%,100%,100%);fill-opacity:1;" d="M 15.5 5 C 13.03125 5 11 7.03125 11 9.5 L 11 21.050781 C 8.765625 21.304688 7 23.203125 7 25.5 L 7 26 L 5.5 26 C 4.960938 25.992188 4.457031 26.277344 4.183594 26.742188 C 3.910156 27.210938 3.910156 27.789062 4.183594 28.257812 C 4.457031 28.722656 4.960938 29.007812 5.5 29 L 7 29 L 7 38.5 C 7 40.96875 9.03125 43 11.5 43 L 36.5 43 C 38.96875 43 41 40.96875 41 38.5 L 41 29 L 42.5 29 C 43.039062 29.007812 43.542969 28.722656 43.816406 28.257812 C 44.089844 27.789062 44.089844 27.210938 43.816406 26.742188 C 43.542969 26.277344 43.039062 25.992188 42.5 26 L 41 26 L 41 25.5 C 41 23.203125 39.234375 21.304688 37 21.050781 L 37 9.5 C 37 7.03125 34.96875 5 32.5 5 Z M 15.5 8 L 32.5 8 C 33.347656 8 34 8.652344 34 9.5 L 34 21 L 27.5 21 C 26.960938 20.992188 26.457031 21.277344 26.183594 21.742188 C 25.910156 22.210938 25.910156 22.789062 26.183594 23.257812 C 26.457031 23.722656 26.960938 24.007812 27.5 24 L 28 24 C 28.570312 24 29 24.429688 29 25 C 29 25.570312 28.570312 26 28 26 L 20 26 C 19.429688 26 19 25.570312 19 25 C 19 24.429688 19.429688 24 20 24 L 20.5 24 C 21.039062 24.007812 21.542969 23.722656 21.816406 23.257812 C 22.089844 22.789062 22.089844 22.210938 21.816406 21.742188 C 21.542969 21.277344 21.039062 20.992188 20.5 21 L 14 21 L 14 9.5 C 14 8.652344 14.652344 8 15.5 8 Z M 18.5 11 C 17.960938 10.992188 17.457031 11.277344 17.183594 11.742188 C 16.910156 12.210938 16.910156 12.789062 17.183594 13.257812 C 17.457031 13.722656 17.960938 14.007812 18.5 14 L 29.5 14 C 30.039062 14.007812 30.542969 13.722656 30.816406 13.257812 C 31.089844 12.789062 31.089844 12.210938 30.816406 11.742188 C 30.542969 11.277344 30.039062 10.992188 29.5 11 Z M 18.5 16 C 17.960938 15.992188 17.457031 16.277344 17.183594 16.742188 C 16.910156 17.210938 16.910156 17.789062 17.183594 18.257812 C 17.457031 18.722656 17.960938 19.007812 18.5 19 L 29.5 19 C 30.039062 19.007812 30.542969 18.722656 30.816406 18.257812 C 31.089844 17.789062 31.089844 17.210938 30.816406 16.742188 C 30.542969 16.277344 30.039062 15.992188 29.5 16 Z M 11.5 24 L 16.144531 24 C 16.058594 24.320312 16 24.652344 16 25 C 16 27.191406 17.808594 29 20 29 L 28 29 C 30.191406 29 32 27.191406 32 25 C 32 24.652344 31.941406 24.320312 31.855469 24 L 36.5 24 C 37.347656 24 38 24.652344 38 25.5 L 38 27.253906 C 37.972656 27.414062 37.972656 27.578125 38 27.738281 L 38 38.5 C 38 39.347656 37.347656 40 36.5 40 L 11.5 40 C 10.652344 40 10 39.347656 10 38.5 L 10 27.746094 C 10.027344 27.585938 10.027344 27.421875 10 27.261719 L 10 25.5 C 10 24.652344 10.652344 24 11.5 24 Z M 15 31 C 14.171875 31 13.5 31.671875 13.5 32.5 C 13.5 33.328125 14.171875 34 15 34 C 15.828125 34 16.5 33.328125 16.5 32.5 C 16.5 31.671875 15.828125 31 15 31 Z M 21 31 C 20.171875 31 19.5 31.671875 19.5 32.5 C 19.5 33.328125 20.171875 34 21 34 C 21.828125 34 22.5 33.328125 22.5 32.5 C 22.5 31.671875 21.828125 31 21 31 Z M 27 31 C 26.171875 31 25.5 31.671875 25.5 32.5 C 25.5 33.328125 26.171875 34 27 34 C 27.828125 34 28.5 33.328125 28.5 32.5 C 28.5 31.671875 27.828125 31 27 31 Z M 33 31 C 32.171875 31 31.5 31.671875 31.5 32.5 C 31.5 33.328125 32.171875 34 33 34 C 33.828125 34 34.5 33.328125 34.5 32.5 C 34.5 31.671875 33.828125 31 33 31 Z M 18 35 C 17.171875 35 16.5 35.671875 16.5 36.5 C 16.5 37.328125 17.171875 38 18 38 C 18.828125 38 19.5 37.328125 19.5 36.5 C 19.5 35.671875 18.828125 35 18 35 Z M 24 35 C 23.171875 35 22.5 35.671875 22.5 36.5 C 22.5 37.328125 23.171875 38 24 38 C 24.828125 38 25.5 37.328125 25.5 36.5 C 25.5 35.671875 24.828125 35 24 35 Z M 30 35 C 29.171875 35 28.5 35.671875 28.5 36.5 C 28.5 37.328125 29.171875 38 30 38 C 30.828125 38 31.5 37.328125 31.5 36.5 C 31.5 35.671875 30.828125 35 30 35 Z M 30 35 "/>
</g>
</svg>
