<?xml version="1.0" encoding="UTF-8"?>
<svg xmlns="http://www.w3.org/2000/svg" xmlns:xlink="http://www.w3.org/1999/xlink" width="48pt" height="48pt" viewBox="0 0 48 48" version="1.1">
<g id="surface7027">
<path style=" stroke:none;fill-rule:nonzero;fill:rgb(100%,100%,100%);fill-opacity:1;" d="M 13.5 4 C 11.03125 4 9 6.03125 9 8.5 L 9 9.878906 L 5.4375 13.4375 C 5.011719 13.867188 4.882812 14.511719 5.113281 15.074219 C 5.347656 15.632812 5.894531 16 6.5 16 L 31.5 16 C 33.96875 16 36 13.96875 36 11.5 L 36 8.5 C 36 6.03125 33.96875 4 31.5 4 Z M 13.5 7 L 31.5 7 C 32.347656 7 33 7.652344 33 8.5 L 33 11.5 C 33 12.347656 32.347656 13 31.5 13 L 10.121094 13 L 11.5625 11.5625 C 11.84375 11.277344 12 10.898438 12 10.5 L 12 8.5 C 12 7.652344 12.652344 7 13.5 7 Z M 17.5 18 C 15.03125 18 13 20.03125 13 22.5 L 13 23.878906 L 9.4375 27.4375 C 9.011719 27.867188 8.882812 28.511719 9.113281 29.074219 C 9.347656 29.632812 9.894531 30 10.5 30 L 35.5 30 C 37.96875 30 40 27.96875 40 25.5 L 40 22.5 C 40 20.03125 37.96875 18 35.5 18 Z M 17.5 21 L 35.5 21 C 36.347656 21 37 21.652344 37 22.5 L 37 25.5 C 37 26.347656 36.347656 27 35.5 27 L 14.121094 27 L 15.5625 25.5625 C 15.84375 25.277344 16 24.898438 16 24.5 L 16 22.5 C 16 21.652344 16.652344 21 17.5 21 Z M 21.5 32 C 19.03125 32 17 34.03125 17 36.5 L 17 37.878906 L 13.4375 41.4375 C 13.011719 41.867188 12.882812 42.511719 13.113281 43.074219 C 13.347656 43.632812 13.894531 44 14.5 44 L 39.5 44 C 41.96875 44 44 41.96875 44 39.5 L 44 36.5 C 44 34.03125 41.96875 32 39.5 32 Z M 21.5 35 L 39.5 35 C 40.347656 35 41 35.652344 41 36.5 L 41 39.5 C 41 40.347656 40.347656 41 39.5 41 L 18.121094 41 L 19.5625 39.5625 C 19.84375 39.277344 20 38.898438 20 38.5 L 20 36.5 C 20 35.652344 20.652344 35 21.5 35 Z M 21.5 35 "/>
</g>
</svg>
