<?xml version="1.0" encoding="UTF-8"?>
<svg xmlns="http://www.w3.org/2000/svg" xmlns:xlink="http://www.w3.org/1999/xlink" width="50pt" height="50pt" viewBox="0 0 50 50" version="1.1">
<g id="surface1173">
<path style="fill:none;stroke-width:2;stroke-linecap:butt;stroke-linejoin:miter;stroke:rgb(100%,100%,100%);stroke-opacity:1;stroke-miterlimit:10;" d="M 41 3 C 37.6875 3 35 5.6875 35 9 C 35 12.3125 37.6875 15 41 15 C 44.3125 15 47 12.3125 47 9 C 47 5.6875 44.3125 3 41 3 Z M 41 35 C 37.6875 35 35 37.6875 35 41 C 35 44.3125 37.6875 47 41 47 C 44.3125 47 47 44.3125 47 41 C 47 37.6875 44.3125 35 41 35 Z M 9 19 C 5.6875 19 3 21.6875 3 25 C 3 28.3125 5.6875 31 9 31 C 12.3125 31 15 28.3125 15 25 C 15 21.6875 12.3125 19 9 19 Z M 9 19 "/>
<path style="fill:none;stroke-width:2;stroke-linecap:butt;stroke-linejoin:miter;stroke:rgb(100%,100%,100%);stroke-opacity:1;stroke-miterlimit:10;" d="M 14 25 L 28 25 L 37 14 M 28 25 L 36.410156 36.140625 "/>
</g>
</svg>
