<?xml version="1.0" encoding="UTF-8"?>
<svg xmlns="http://www.w3.org/2000/svg" xmlns:xlink="http://www.w3.org/1999/xlink" width="48pt" height="48pt" viewBox="0 0 48 48" version="1.1">
<g id="surface7117">
<path style=" stroke:none;fill-rule:nonzero;fill:rgb(100%,100%,100%);fill-opacity:1;" d="M 23.976562 2.976562 C 23.148438 2.992188 22.488281 3.671875 22.5 4.5 L 22.5 7.085938 L 21.371094 6.28125 C 20.9375 5.949219 20.355469 5.886719 19.859375 6.105469 C 19.359375 6.328125 19.019531 6.804688 18.972656 7.347656 C 18.925781 7.890625 19.175781 8.414062 19.628906 8.71875 L 22.5 10.769531 L 22.5 15 L 19.671875 15 C 19.132812 15 18.640625 15.285156 18.371094 15.75 L 16.957031 18.203125 L 13.296875 16.085938 L 12.953125 12.574219 C 12.886719 11.789062 12.230469 11.1875 11.441406 11.199219 C 11.019531 11.203125 10.617188 11.386719 10.335938 11.703125 C 10.054688 12.019531 9.921875 12.441406 9.96875 12.863281 L 10.101562 14.246094 L 7.863281 12.953125 C 7.398438 12.667969 6.816406 12.660156 6.34375 12.929688 C 5.871094 13.199219 5.582031 13.699219 5.585938 14.246094 C 5.589844 14.789062 5.886719 15.285156 6.363281 15.546875 L 8.601562 16.84375 L 7.339844 17.417969 C 6.839844 17.632812 6.5 18.097656 6.441406 18.640625 C 6.386719 19.179688 6.625 19.707031 7.070312 20.019531 C 7.515625 20.332031 8.09375 20.378906 8.582031 20.144531 L 11.796875 18.6875 L 15.457031 20.796875 L 14.042969 23.25 C 13.773438 23.714844 13.773438 24.285156 14.042969 24.75 L 15.457031 27.203125 L 11.796875 29.3125 L 8.582031 27.855469 C 8.09375 27.621094 7.515625 27.667969 7.070312 27.980469 C 6.625 28.292969 6.386719 28.820312 6.441406 29.359375 C 6.5 29.902344 6.839844 30.367188 7.339844 30.582031 L 8.601562 31.15625 L 6.363281 32.453125 C 5.886719 32.714844 5.589844 33.210938 5.585938 33.753906 C 5.582031 34.300781 5.871094 34.800781 6.34375 35.070312 C 6.816406 35.339844 7.398438 35.332031 7.863281 35.046875 L 10.101562 33.753906 L 9.96875 35.136719 C 9.894531 35.679688 10.125 36.222656 10.570312 36.546875 C 11.011719 36.871094 11.597656 36.925781 12.09375 36.691406 C 12.589844 36.460938 12.921875 35.972656 12.953125 35.425781 L 13.296875 31.914062 L 16.957031 29.796875 L 18.371094 32.25 C 18.640625 32.714844 19.132812 33 19.671875 33 L 22.5 33 L 22.5 37.230469 L 19.628906 39.28125 C 19.175781 39.585938 18.925781 40.109375 18.972656 40.652344 C 19.019531 41.195312 19.359375 41.671875 19.859375 41.894531 C 20.355469 42.113281 20.9375 42.050781 21.371094 41.71875 L 22.5 40.914062 L 22.5 43.5 C 22.492188 44.039062 22.777344 44.542969 23.242188 44.816406 C 23.710938 45.089844 24.289062 45.089844 24.757812 44.816406 C 25.222656 44.542969 25.507812 44.039062 25.5 43.5 L 25.5 40.914062 L 26.628906 41.71875 C 27.0625 42.050781 27.644531 42.113281 28.140625 41.894531 C 28.640625 41.671875 28.980469 41.195312 29.027344 40.652344 C 29.074219 40.109375 28.824219 39.585938 28.371094 39.28125 L 25.5 37.230469 L 25.5 33 L 28.328125 33 C 28.867188 33 29.359375 32.714844 29.628906 32.25 L 31.042969 29.796875 L 34.703125 31.914062 L 35.046875 35.425781 C 35.078125 35.972656 35.410156 36.460938 35.90625 36.691406 C 36.402344 36.925781 36.988281 36.871094 37.429688 36.546875 C 37.875 36.222656 38.105469 35.679688 38.03125 35.136719 L 37.898438 33.753906 L 40.136719 35.046875 C 40.601562 35.332031 41.183594 35.339844 41.65625 35.070312 C 42.128906 34.800781 42.417969 34.300781 42.414062 33.753906 C 42.410156 33.210938 42.113281 32.714844 41.636719 32.453125 L 39.398438 31.15625 L 40.660156 30.582031 C 41.160156 30.367188 41.5 29.902344 41.558594 29.359375 C 41.613281 28.820312 41.375 28.292969 40.929688 27.980469 C 40.484375 27.667969 39.90625 27.621094 39.417969 27.855469 L 36.203125 29.3125 L 32.542969 27.203125 L 33.957031 24.75 C 34.226562 24.285156 34.226562 23.714844 33.957031 23.25 L 32.542969 20.796875 L 36.203125 18.6875 L 39.417969 20.144531 C 39.90625 20.378906 40.484375 20.332031 40.929688 20.019531 C 41.375 19.707031 41.613281 19.179688 41.558594 18.640625 C 41.5 18.097656 41.160156 17.632812 40.660156 17.417969 L 39.398438 16.84375 L 41.636719 15.546875 C 42.113281 15.285156 42.410156 14.789062 42.414062 14.246094 C 42.417969 13.699219 42.128906 13.199219 41.65625 12.929688 C 41.183594 12.660156 40.601562 12.667969 40.136719 12.953125 L 37.898438 14.246094 L 38.03125 12.863281 C 38.078125 12.433594 37.941406 12.007812 37.648438 11.6875 C 37.359375 11.367188 36.945312 11.191406 36.515625 11.199219 C 35.742188 11.210938 35.109375 11.808594 35.046875 12.574219 L 34.703125 16.085938 L 31.042969 18.203125 L 29.628906 15.75 C 29.359375 15.285156 28.867188 15 28.328125 15 L 25.5 15 L 25.5 10.769531 L 28.371094 8.71875 C 28.824219 8.414062 29.074219 7.890625 29.027344 7.347656 C 28.980469 6.804688 28.640625 6.328125 28.140625 6.105469 C 27.644531 5.886719 27.0625 5.949219 26.628906 6.28125 L 25.5 7.085938 L 25.5 4.5 C 25.503906 4.09375 25.347656 3.703125 25.058594 3.417969 C 24.773438 3.128906 24.382812 2.972656 23.976562 2.976562 Z M 20.535156 18 L 23.753906 18 C 23.914062 18.027344 24.078125 18.027344 24.238281 18 L 27.464844 18 L 29.042969 20.734375 C 29.109375 20.929688 29.210938 21.109375 29.347656 21.265625 L 29.351562 21.265625 L 30.925781 24 L 29.324219 26.78125 C 29.214844 26.910156 29.132812 27.058594 29.074219 27.214844 L 27.464844 30 L 24.246094 30 C 24.15625 29.984375 24.066406 29.976562 23.976562 29.980469 C 23.902344 29.980469 23.832031 29.988281 23.757812 30 L 20.535156 30 L 18.925781 27.210938 C 18.867188 27.058594 18.785156 26.914062 18.683594 26.789062 L 17.074219 24 L 18.652344 21.265625 C 18.789062 21.113281 18.894531 20.929688 18.957031 20.734375 C 18.960938 20.730469 18.960938 20.730469 18.957031 20.730469 Z M 20.535156 18 "/>
</g>
</svg>
