<svg fill="#ffffff" xmlns="http://www.w3.org/2000/svg"  viewBox="0 0 64 64" width="64px" height="64px"><path d="M 25 1 L 23.146484 7.4882812 C 21.78916 7.3622767 20.338934 7.2125131 18.744141 7.015625 L 18.255859 10.984375 C 19.92152 11.190012 21.441562 11.343814 22.863281 11.474609 C 21.446426 13.318311 20.578984 15.614696 20.5 18 C 20.43 19.78 20.790781 21.590234 21.550781 23.240234 C 22.890781 23.580234 24.689297 23.97 26.779297 24.25 C 26.589297 24.1 26.400703 23.949297 26.220703 23.779297 C 24.630703 22.339297 23.6 20.24 23.5 18 C 23.39 15.77 24.179766 13.469766 25.759766 11.759766 C 25.7769 11.741104 25.797144 11.725529 25.814453 11.707031 C 29.574473 11.970509 32 12 32 12 C 32 12 34.439838 11.969262 38.222656 11.703125 C 38.234625 11.715857 38.247873 11.727439 38.259766 11.740234 C 39.809766 13.480234 40.61 15.77 40.5 18 C 40.4 20.24 39.379766 22.349766 37.759766 23.759766 C 37.459766 24.029766 37.150312 24.280234 36.820312 24.490234 C 38.670313 24.290234 40.550625 23.929375 42.390625 23.359375 C 43.180625 21.679375 43.57 19.82 43.5 18 C 43.428901 15.622149 42.562631 13.308233 41.130859 11.476562 C 42.554177 11.345679 44.076172 11.190293 45.744141 10.984375 L 45.255859 7.015625 C 43.661066 7.2125131 42.21084 7.3622767 40.853516 7.4882812 L 39 1 L 34 3 L 25 1 z M 28.5 14 A 1.5 1.5 0 0 0 28.5 17 A 1.5 1.5 0 0 0 28.5 14 z M 35.5 14 A 1.5 1.5 0 0 0 35.5 17 A 1.5 1.5 0 0 0 35.5 14 z M 32 18 A 2 2 0 0 0 32 22 A 2 2 0 0 0 32.400391 21.960938 L 38 20.5 L 38 19.5 L 32.478516 18.058594 A 2 2 0 0 0 32.464844 18.056641 L 32.400391 18.039062 L 32.400391 18.042969 A 2 2 0 0 0 32 18 z M 10.960938 20.150391 C 10.131347 22.445241 9.1747175 24.752376 8.1992188 27.046875 C 7.6173791 26.439521 7.0461119 25.822538 6.4960938 25.185547 C 5.3420937 23.891547 4.2745156 22.524625 3.2285156 21.140625 L 0.77148438 22.861328 C 1.7994844 24.363328 2.8559063 25.852531 4.0039062 27.269531 C 5.1309062 28.703531 6.3437969 30.068344 7.5917969 31.402344 C 8.8427969 32.734344 10.164203 34.002609 11.533203 35.224609 C 12.364228 35.9572 13.190874 36.653662 14.064453 37.337891 C 13.546611 39.060102 13.265007 40.855573 13.25 42.660156 C 13.18 47.600156 15.090781 52.579453 18.550781 56.189453 C 21.980781 59.819453 26.96 61.99 32 62 C 34.51 61.99 37.029844 61.480234 39.339844 60.490234 C 41.649844 59.490234 43.740937 58.009219 45.460938 56.199219 C 48.910938 52.579219 50.82 47.600156 50.75 42.660156 C 50.734976 40.85726 50.453106 39.062396 49.933594 37.339844 C 50.808152 36.654963 51.636895 35.955978 52.46875 35.222656 C 53.83775 34.000656 55.157203 32.733391 56.408203 31.400391 C 57.656203 30.066391 58.871047 28.702578 59.998047 27.267578 C 61.147047 25.851578 62.202469 24.362375 63.230469 22.859375 L 60.771484 21.140625 C 59.725484 22.524625 58.659859 23.890594 57.505859 25.183594 C 56.955231 25.821291 56.383294 26.440956 55.800781 27.048828 C 54.825407 24.753786 53.867648 22.445794 53.037109 20.150391 L 50.162109 21.001953 C 50.939814 24.07421 51.85236 27.015924 52.792969 29.982422 C 51.89595 30.80237 50.982104 31.600718 50.042969 32.363281 C 49.50281 32.799579 48.937161 33.226587 48.373047 33.646484 C 47.582591 32.200003 46.621105 30.849037 45.480469 29.660156 C 45.468941 29.669864 45.452566 29.680215 45.441406 29.689453 C 45.462478 29.672131 45.517578 29.628906 45.517578 29.628906 L 42.855469 25.119141 C 42.855469 25.119141 37.258 26.787109 32 26.787109 C 26.742 26.787109 21.144531 25.119141 21.144531 25.119141 L 18.482422 29.628906 C 18.482422 29.628906 18.507098 29.6481 18.509766 29.650391 C 17.370747 30.841182 16.408791 32.193028 15.619141 33.642578 C 15.058028 33.22471 14.494363 32.799249 13.957031 32.365234 C 13.017555 31.60169 12.104357 30.800451 11.207031 29.980469 C 12.147386 27.014599 13.060382 24.072517 13.837891 21.001953 L 10.960938 20.150391 z M 42.607422 31.21875 L 42.949219 31.560547 C 45.769219 34.530547 47.32 38.600156 47.25 42.660156 C 47.2 46.720156 45.539219 50.689531 42.699219 53.519531 C 39.879219 56.369531 35.97 58.01 32 58 C 28.03 58.04 24.089063 56.399297 21.289062 53.529297 C 18.459063 50.689297 16.8 46.720156 16.75 42.660156 C 16.69 38.600156 18.240547 34.530313 21.060547 31.570312 C 21.130457 31.494047 21.276427 31.352936 21.40625 31.224609 C 23.563343 32.097193 26.98296 33 32 33 C 37.028768 33 40.451331 32.093213 42.607422 31.21875 z M 39.466797 34.021484 C 37.266797 34.980484 32.347656 35.279297 32.347656 35.279297 C 32.347656 35.279297 34 40.779297 35 45.779297 L 41.412109 44.279297 C 41.412109 44.279297 40.788797 37.891484 39.466797 34.021484 z"/></svg>
