<?xml version="1.0" encoding="UTF-8"?>
<svg xmlns="http://www.w3.org/2000/svg" xmlns:xlink="http://www.w3.org/1999/xlink" width="48pt" height="48pt" viewBox="0 0 48 48" version="1.1">
<g id="surface6997">
<path style=" stroke:none;fill-rule:nonzero;fill:rgb(100%,100%,100%);fill-opacity:1;" d="M 23.5 6.015625 C 20.480469 6.015625 18 8.496094 18 11.515625 L 18 35.5 C 18 38.519531 20.480469 41 23.5 41 L 38.5 41 C 40.011719 41 41.492188 40.445312 42.722656 39.53125 C 43.953125 38.621094 45 37.234375 45 35.5 L 45 19 C 45 18.613281 44.847656 18.242188 44.582031 17.964844 L 44.546875 17.921875 L 33.582031 6.460938 L 33.574219 6.472656 C 33.292969 6.183594 32.90625 6.019531 32.5 6.015625 Z M 15.5 8.015625 C 12.46875 8.015625 10 10.484375 10 13.515625 L 10 33.5 C 10 36.53125 12.46875 39 15.5 39 L 17.261719 39 C 16.574219 38.167969 16.128906 37.132812 16.027344 36 L 15.5 36 C 14.121094 36 13 34.878906 13 33.5 L 13 13.515625 C 13 12.136719 14.121094 11.015625 15.5 11.015625 L 16.027344 11.015625 C 16.128906 9.882812 16.574219 8.847656 17.261719 8.015625 Z M 23.5 9.015625 L 31 9.015625 L 31 15 C 31 18.019531 33.480469 20.5 36.5 20.5 L 42 20.5 L 42 35.5 C 42 35.972656 41.652344 36.589844 40.933594 37.125 C 40.214844 37.660156 39.199219 38 38.5 38 L 23.5 38 C 22.101562 38 21 36.898438 21 35.5 L 21 11.515625 C 21 10.121094 22.101562 9.015625 23.5 9.015625 Z M 7.5 10 C 4.46875 10 2 12.46875 2 15.5 L 2 31.5 C 2 34.53125 4.46875 37 7.5 37 L 8.871094 37 C 8.390625 36.09375 8.097656 35.078125 8.023438 34 L 7.5 34 C 6.121094 34 5 32.878906 5 31.5 L 5 15.5 C 5 14.121094 6.121094 13 7.5 13 L 8.023438 13 C 8.097656 11.921875 8.398438 10.90625 8.882812 10 Z M 34 11.238281 L 39.988281 17.5 L 36.5 17.5 C 35.101562 17.5 34 16.398438 34 15 Z M 34 11.238281 "/>
</g>
</svg>
