<?xml version="1.0" encoding="UTF-8"?>
<svg xmlns="http://www.w3.org/2000/svg" xmlns:xlink="http://www.w3.org/1999/xlink" width="48pt" height="48pt" viewBox="0 0 48 48" version="1.1">
<g id="surface7087">
<path style=" stroke:none;fill-rule:nonzero;fill:rgb(100%,100%,100%);fill-opacity:1;" d="M 16 5 C 12.152344 5 9 8.152344 9 12 C 9 15.847656 12.152344 19 16 19 C 19.847656 19 23 15.847656 23 12 C 23 8.152344 19.847656 5 16 5 Z M 32 5 C 28.152344 5 25 8.152344 25 12 C 25 15.847656 28.152344 19 32 19 C 35.847656 19 39 15.847656 39 12 C 39 8.152344 35.847656 5 32 5 Z M 16 8 C 18.226562 8 20 9.773438 20 12 C 20 14.226562 18.226562 16 16 16 C 13.773438 16 12 14.226562 12 12 C 12 9.773438 13.773438 8 16 8 Z M 32 8 C 34.226562 8 36 9.773438 36 12 C 36 14.226562 34.226562 16 32 16 C 29.773438 16 28 14.226562 28 12 C 28 9.773438 29.773438 8 32 8 Z M 9.5 21 C 7.570312 21 6 22.570312 6 24.5 L 6 34 C 6 39.515625 10.484375 44 16 44 C 18.542969 44 20.859375 43.039062 22.625 41.46875 C 21.988281 40.671875 21.453125 39.792969 21.03125 38.851562 C 19.757812 40.171875 17.976562 41 16 41 C 12.140625 41 9 37.859375 9 34 L 9 24.5 C 9 24.222656 9.222656 24 9.5 24 L 20.027344 24 C 20.128906 22.867188 20.574219 21.832031 21.261719 21 Z M 25.5 21 C 23.585938 21 22 22.585938 22 24.5 L 22 34 C 22 39.503906 26.496094 44 32 44 C 37.503906 44 42 39.503906 42 34 L 42 24.5 C 42 22.585938 40.414062 21 38.5 21 Z M 25.5 24 L 38.5 24 C 38.796875 24 39 24.203125 39 24.5 L 39 34 C 39 37.882812 35.882812 41 32 41 C 28.117188 41 25 37.882812 25 34 L 25 24.5 C 25 24.203125 25.203125 24 25.5 24 Z M 25.5 24 "/>
</g>
</svg>
